<svg width="44" height="37" viewBox="0 0 44 37" fill="none" xmlns="http://www.w3.org/2000/svg">
<g id="28 Web Designing">
<path id="Vector" d="M39.4045 0.98291H4.31342C3.34433 0.984071 2.41526 1.36956 1.73 2.05481C1.04475 2.74006 0.659265 3.66914 0.658104 4.63823V32.4187C0.659265 33.3878 1.04475 34.3168 1.73 35.0021C2.41526 35.6873 3.34433 36.0728 4.31342 36.074H39.4045C40.3736 36.0728 41.3027 35.6873 41.9879 35.0021C42.6732 34.3168 43.0587 33.3878 43.0598 32.4187V4.63823C43.0587 3.66914 42.6732 2.74006 41.9879 2.05481C41.3027 1.36956 40.3736 0.984071 39.4045 0.98291ZM2.12023 4.63823C2.12023 4.05656 2.3513 3.49871 2.7626 3.08741C3.17391 2.67611 3.73175 2.44504 4.31342 2.44504H39.4045C39.9862 2.44504 40.544 2.67611 40.9553 3.08741C41.3666 3.49871 41.5977 4.05656 41.5977 4.63823V6.83142H2.12023V4.63823ZM41.5977 32.4187C41.5977 33.0003 41.3666 33.5582 40.9553 33.9695C40.544 34.3808 39.9862 34.6119 39.4045 34.6119H4.31342C3.73175 34.6119 3.17391 34.3808 2.7626 33.9695C2.3513 33.5582 2.12023 33.0003 2.12023 32.4187V8.29355H41.5977V32.4187Z" fill="white"/>
<path id="Vector_2" d="M4.31714 5.37657C4.72291 5.37657 5.05186 5.04763 5.05186 4.64185C5.05186 4.23608 4.72291 3.90714 4.31714 3.90714C3.91137 3.90714 3.58242 4.23608 3.58242 4.64185C3.58242 5.04763 3.91137 5.37657 4.31714 5.37657Z" fill="white"/>
<path id="Vector_3" d="M7.23765 5.37657C7.64342 5.37657 7.97237 5.04763 7.97237 4.64185C7.97237 4.23608 7.64342 3.90714 7.23765 3.90714C6.83187 3.90714 6.50293 4.23608 6.50293 4.64185C6.50293 5.04763 6.83187 5.37657 7.23765 5.37657Z" fill="white"/>
<path id="Vector_4" d="M10.1657 5.37657C10.5714 5.37657 10.9004 5.04763 10.9004 4.64185C10.9004 4.23608 10.5714 3.90714 10.1657 3.90714C9.75988 3.90714 9.43094 4.23608 9.43094 4.64185C9.43094 5.04763 9.75988 5.37657 10.1657 5.37657Z" fill="white"/>
<path id="Vector_5" d="M18.2036 19.9905H38.6734C38.9099 19.989 39.1424 19.9292 39.3504 19.8165L39.357 19.8129C39.5908 19.6892 39.7867 19.5045 39.9238 19.2783C40.0609 19.0521 40.1341 18.7929 40.1356 18.5284V12.6799C40.1356 12.2921 39.9815 11.9202 39.7073 11.646C39.4331 11.3718 39.0612 11.2178 38.6734 11.2178H18.2036C17.9521 11.2195 17.7054 11.2867 17.4879 11.413C17.2627 11.5394 17.075 11.7232 16.9439 11.9458C16.8128 12.1683 16.7429 12.4216 16.7415 12.6799V18.5284C16.7415 18.9162 16.8956 19.2881 17.1698 19.5623C17.444 19.8365 17.8159 19.9905 18.2036 19.9905ZM38.6734 18.2426L30.7531 15.6042L38.6734 12.9657V18.2426ZM34.9033 18.5284H21.9737L28.4385 16.3754L34.9033 18.5284ZM28.4385 14.8336L21.9737 12.6799H34.9033L28.4385 14.8336ZM26.124 15.6042L18.2036 18.2426V12.9657L26.124 15.6042Z" fill="white"/>
<path id="Vector_6" d="M9.43086 13.411H13.0862C13.2801 13.411 13.466 13.334 13.6031 13.1969C13.7402 13.0598 13.8172 12.8738 13.8172 12.6799C13.8172 12.486 13.7402 12.3001 13.6031 12.163C13.466 12.0259 13.2801 11.9489 13.0862 11.9489H9.43086C9.23697 11.9489 9.05102 12.0259 8.91392 12.163C8.77682 12.3001 8.6998 12.486 8.6998 12.6799C8.6998 12.8738 8.77682 13.0598 8.91392 13.1969C9.05102 13.334 9.23697 13.411 9.43086 13.411Z" fill="white"/>
<path id="Vector_7" d="M4.31348 13.411H6.50668C6.70057 13.411 6.88652 13.334 7.02362 13.1969C7.16072 13.0598 7.23774 12.8738 7.23774 12.6799C7.23774 12.486 7.16072 12.3001 7.02362 12.163C6.88652 12.0259 6.70057 11.9489 6.50668 11.9489H4.31348C4.11959 11.9489 3.93365 12.0259 3.79654 12.163C3.65944 12.3001 3.58242 12.486 3.58242 12.6799C3.58242 12.8738 3.65944 13.0598 3.79654 13.1969C3.93365 13.334 4.11959 13.411 4.31348 13.411Z" fill="white"/>
<path id="Vector_8" d="M13.0862 14.8731H11.624C11.4302 14.8731 11.2442 14.9501 11.1071 15.0872C10.97 15.2243 10.893 15.4103 10.893 15.6042C10.893 15.7981 10.97 15.984 11.1071 16.1211C11.2442 16.2582 11.4302 16.3352 11.624 16.3352H13.0862C13.2801 16.3352 13.466 16.2582 13.6031 16.1211C13.7402 15.984 13.8172 15.7981 13.8172 15.6042C13.8172 15.4103 13.7402 15.2243 13.6031 15.0872C13.466 14.9501 13.2801 14.8731 13.0862 14.8731Z" fill="white"/>
<path id="Vector_9" d="M4.31348 16.3352H8.69987C8.89376 16.3352 9.07971 16.2582 9.21681 16.1211C9.35391 15.984 9.43093 15.7981 9.43093 15.6042C9.43093 15.4103 9.35391 15.2243 9.21681 15.0872C9.07971 14.9501 8.89376 14.8731 8.69987 14.8731H4.31348C4.11959 14.8731 3.93365 14.9501 3.79654 15.0872C3.65944 15.2243 3.58242 15.4103 3.58242 15.6042C3.58242 15.7981 3.65944 15.984 3.79654 16.1211C3.93365 16.2582 4.11959 16.3352 4.31348 16.3352Z" fill="white"/>
<path id="Vector_10" d="M13.0863 17.7974H10.162C9.96811 17.7974 9.78216 17.8744 9.64506 18.0115C9.50796 18.1486 9.43094 18.3345 9.43094 18.5284C9.43094 18.7223 9.50796 18.9083 9.64506 19.0454C9.78216 19.1825 9.96811 19.2595 10.162 19.2595H13.0863C13.2801 19.2595 13.4661 19.1825 13.6032 19.0454C13.7403 18.9083 13.8173 18.7223 13.8173 18.5284C13.8173 18.3345 13.7403 18.1486 13.6032 18.0115C13.4661 17.8744 13.2801 17.7974 13.0863 17.7974Z" fill="white"/>
<path id="Vector_11" d="M4.31348 19.2595H7.23774C7.43163 19.2595 7.61758 19.1825 7.75468 19.0454C7.89178 18.9083 7.9688 18.7223 7.9688 18.5284C7.9688 18.3345 7.89178 18.1486 7.75468 18.0115C7.61758 17.8744 7.43163 17.7974 7.23774 17.7974H4.31348C4.11959 17.7974 3.93365 17.8744 3.79654 18.0115C3.65944 18.1486 3.58242 18.3345 3.58242 18.5284C3.58242 18.7223 3.65944 18.9083 3.79654 19.0454C3.93365 19.1825 4.11959 19.2595 4.31348 19.2595Z" fill="white"/>
<path id="Vector_12" d="M5.04455 28.7633H7.23774V29.4944C7.23774 30.0761 7.46881 30.6339 7.88011 31.0452C8.29141 31.4565 8.84926 31.6876 9.43093 31.6876C10.0126 31.6876 10.5705 31.4565 10.9818 31.0452C11.3931 30.6339 11.6241 30.0761 11.6241 29.4944V28.7633H13.9423C14.0933 29.1912 14.3733 29.5617 14.7438 29.8238C15.1142 30.0859 15.5568 30.2266 16.0105 30.2266C16.4643 30.2266 16.9068 30.0859 17.2773 29.8238C17.6477 29.5617 17.9277 29.1912 18.0787 28.7633H24.5998C25.5145 29.2861 26.5584 29.5396 27.611 29.4944H27.7127C28.9952 29.4068 30.2613 29.1562 31.4806 28.7487H35.7492L39.4046 28.7633C39.5984 28.7633 39.7844 28.6863 39.9215 28.5492C40.0586 28.4121 40.1356 28.2261 40.1356 28.0323V23.6459C40.1356 23.452 40.0586 23.266 39.9215 23.1289C39.7844 22.9918 39.5984 22.9148 39.4046 22.9148L35.7492 22.9002H31.471C30.248 22.5116 28.9827 22.2711 27.7024 22.1837C26.6171 22.1391 25.5402 22.3919 24.5881 22.9148H5.04455C4.65677 22.9148 4.28487 23.0688 4.01067 23.3431C3.73647 23.6173 3.58242 23.9892 3.58242 24.3769V27.3012C3.58242 27.689 3.73647 28.0609 4.01067 28.3351C4.28487 28.6093 4.65677 28.7633 5.04455 28.7633ZM38.6735 27.3012L36.4803 27.2924V24.3682L38.6735 24.3769V27.3012ZM35.0182 27.2895H32.0939V24.3652H35.0182V27.2895ZM27.7127 23.6459C28.7032 23.7062 29.683 23.8836 30.6318 24.1744V27.4796C29.681 27.7805 28.6975 27.9661 27.7024 28.0323C26.3653 28.044 26.0875 27.8999 24.3432 26.9876C23.7642 26.6842 23.0353 26.3033 22.0725 25.8259C22.1785 25.774 22.2735 25.7265 22.3737 25.6797C23.1113 25.3142 23.7101 25.0078 24.1918 24.76C24.5347 24.5831 24.8279 24.4325 25.0859 24.3046L25.0932 24.2987C25.8826 23.8268 26.7942 23.5996 27.7127 23.6459ZM5.04455 24.3769H21.704L21.6572 24.4003C21.193 24.6299 20.6725 24.8836 20.0825 25.1643C19.9581 25.2235 19.853 25.3167 19.7793 25.4332C19.7055 25.5496 19.6662 25.6845 19.6658 25.8222C19.6662 25.96 19.7055 26.0949 19.7793 26.2113C19.853 26.3277 19.9581 26.421 20.0825 26.4802C20.6184 26.7353 21.2617 27.049 21.753 27.2953H17.4726C17.2787 27.2953 17.0928 27.3724 16.9557 27.5095C16.8186 27.6466 16.7416 27.8325 16.7416 28.0264C16.7416 28.2203 16.6646 28.4062 16.5274 28.5433C16.3903 28.6804 16.2044 28.7575 16.0105 28.7575C15.8166 28.7575 15.6307 28.6804 15.4936 28.5433C15.3565 28.4062 15.2794 28.2203 15.2794 28.0264C15.2794 27.8325 15.2024 27.6466 15.0653 27.5095C14.9282 27.3724 14.7423 27.2953 14.5484 27.2953H11.6241C11.2363 27.2953 10.8644 27.4494 10.5902 27.7236C10.316 27.9978 10.162 28.3697 10.162 28.7575V29.4885C10.162 29.6824 10.085 29.8684 9.94787 30.0055C9.81077 30.1426 9.62482 30.2196 9.43093 30.2196C9.23704 30.2196 9.05109 30.1426 8.91399 30.0055C8.77689 29.8684 8.69987 29.6824 8.69987 29.4885V28.7633C8.69987 28.3755 8.54582 28.0036 8.27162 27.7294C7.99742 27.4552 7.62552 27.3012 7.23774 27.3012H5.04455V24.3769Z" fill="white"/>
</g>
</svg>
