<svg width="31" height="51" viewBox="0 0 31 51" fill="none" xmlns="http://www.w3.org/2000/svg">
<g id="Group">
<path id="Vector" d="M5.51264 0.743622C2.71955 0.743622 0.43573 3.02744 0.43573 5.82053V45.3076C0.43573 48.1007 2.71955 50.3845 5.51264 50.3845H21.3075C21.457 50.3866 21.6054 50.359 21.7441 50.3033C21.8829 50.2475 22.0091 50.1648 22.1156 50.0598C22.2221 49.9548 22.3066 49.8297 22.3643 49.6918C22.422 49.5539 22.4517 49.4058 22.4517 49.2563C22.4517 49.1068 22.422 48.9588 22.3643 48.8209C22.3066 48.6829 22.2221 48.5578 22.1156 48.4529C22.0091 48.3479 21.8829 48.2651 21.7441 48.2094C21.6054 48.1536 21.457 48.126 21.3075 48.1281H5.51264C3.93057 48.1281 2.69214 46.8897 2.69214 45.3076V41.3589H28.6408V45.3076C28.6408 46.8897 27.4024 48.1281 25.8203 48.1281C25.6708 48.126 25.5224 48.1536 25.3836 48.2094C25.2449 48.2651 25.1186 48.3479 25.0122 48.4529C24.9057 48.5578 24.8211 48.6829 24.7634 48.8209C24.7057 48.9588 24.676 49.1068 24.676 49.2563C24.676 49.4058 24.7057 49.5539 24.7634 49.6918C24.8211 49.8297 24.9057 49.9548 25.0122 50.0598C25.1186 50.1648 25.2449 50.2475 25.3836 50.3033C25.5224 50.359 25.6708 50.3866 25.8203 50.3845C28.6134 50.3845 30.8972 48.1007 30.8972 45.3076V5.82053C30.8972 3.02744 28.6134 0.743622 25.8203 0.743622H5.51264ZM5.51264 3.00003H25.8203C27.4024 3.00003 28.6408 4.23846 28.6408 5.82053V6.38463H2.69214V5.82053C2.69214 4.23846 3.93057 3.00003 5.51264 3.00003ZM2.69214 8.64104H28.6408V39.1025H2.69214V8.64104ZM15.6312 13.718C15.4444 13.7269 15.2627 13.7814 15.1024 13.8766L7.20495 18.3894C7.03347 18.4881 6.89114 18.6295 6.79215 18.7997C6.69317 18.9698 6.641 19.1626 6.64084 19.359V28.3846C6.641 28.5809 6.69317 28.7737 6.79215 28.9439C6.89114 29.114 7.03347 29.2555 7.20495 29.3541L15.1024 33.8669C15.2741 33.9644 15.4685 34.0156 15.6665 34.0156C15.8644 34.0156 16.0589 33.9644 16.2306 33.8669L24.128 29.3541C24.2995 29.2555 24.4418 29.114 24.5408 28.9439C24.6398 28.7737 24.6919 28.5809 24.6921 28.3846V19.359C24.6919 19.1626 24.6398 18.9698 24.5408 18.7997C24.4418 18.6295 24.2995 18.4881 24.128 18.3894L16.2306 13.8766C16.0496 13.7696 15.842 13.7147 15.6312 13.718ZM15.6665 16.1506L21.2722 19.359L15.6665 22.5673L10.0607 19.359L15.6665 16.1506ZM8.89725 21.2981L14.5383 24.524V30.9583L8.89725 27.7323V21.2981ZM22.4357 21.2981V27.7323L16.7947 30.9583V24.524L22.4357 21.2981ZM15.6665 43.0512C14.7318 43.0512 13.9742 43.8089 13.9742 44.7435C13.9742 45.6782 14.7318 46.4358 15.6665 46.4358C16.6011 46.4358 17.3588 45.6782 17.3588 44.7435C17.3588 43.8089 16.6011 43.0512 15.6665 43.0512Z" fill="white"/>
</g>
</svg>
