<svg width="48" height="48" viewBox="0 0 48 48" fill="none" xmlns="http://www.w3.org/2000/svg">
<g id="Group">
<path id="Vector" d="M28.0053 42.8468H20.4991V44.348H28.0053V42.8468Z" fill="white"/>
<path id="Vector_2" d="M47.5214 8.31821H39.2645V4.56511C39.2645 2.49565 37.5809 0.812012 35.5114 0.812012H12.9928C10.9234 0.812012 9.23973 2.49565 9.23973 4.56511V24.8319H0.98291V38.343H9.23973V43.5974C9.23973 45.6668 10.9234 47.3505 12.9928 47.3505H35.5114C37.5809 47.3505 39.2645 45.6668 39.2645 43.5974V21.8294H47.5214V8.31821ZM12.9928 2.31325H35.5114C36.753 2.31325 37.7633 3.32359 37.7633 4.56511V5.31573H10.741V4.56511C10.741 3.32359 11.7513 2.31325 12.9928 2.31325ZM10.741 6.81697H37.7633V8.31821H20.499V11.9294C15.6117 13.5373 12.2422 18.1393 12.2422 23.3306C12.2422 23.8335 12.2842 24.3342 12.3466 24.8319H10.741V6.81697ZM34.6415 21.8294C34.712 22.3263 34.7608 22.827 34.7608 23.3306C34.7608 27.706 32.0271 31.6062 28.0052 33.145V24.8319H13.8628C13.7922 24.335 13.7435 23.8343 13.7435 23.3306C13.7435 18.9553 16.4772 15.055 20.499 13.5163V21.8294H34.6415ZM2.48415 26.3331H26.504V36.8418H2.48415V26.3331ZM35.5114 45.8492H12.9928C11.7513 45.8492 10.741 44.8389 10.741 43.5974V41.3455H37.7633V43.5974C37.7633 44.8389 36.753 45.8492 35.5114 45.8492ZM37.7633 39.8443H10.741V38.343H28.0052V34.7318C32.8925 33.1232 36.2621 28.5219 36.2621 23.3306C36.2621 22.8277 36.2193 22.327 36.1577 21.8294H37.7633V39.8443ZM46.0201 20.3281H22.0003V9.81946H46.0201V20.3281Z" fill="white"/>
<path id="Vector_3" d="M44.5189 11.3207H23.5015V12.8219H44.5189V11.3207Z" fill="white"/>
<path id="Vector_4" d="M44.519 14.3232H26.5041V15.8244H44.519V14.3232Z" fill="white"/>
<path id="Vector_5" d="M25.0028 14.3232H23.5015V15.8244H25.0028V14.3232Z" fill="white"/>
<path id="Vector_6" d="M44.5189 17.3257H43.0177V18.8269H44.5189V17.3257Z" fill="white"/>
<path id="Vector_7" d="M41.5164 17.3257H23.5015V18.8269H41.5164V17.3257Z" fill="white"/>
<path id="Vector_8" d="M25.0029 27.8344H6.98798V29.3356H25.0029V27.8344Z" fill="white"/>
<path id="Vector_9" d="M5.48665 27.8344H3.98541V29.3356H5.48665V27.8344Z" fill="white"/>
<path id="Vector_10" d="M25.0028 30.8368H3.98541V32.3381H25.0028V30.8368Z" fill="white"/>
<path id="Vector_11" d="M25.0028 33.8393H23.5015V35.3405H25.0028V33.8393Z" fill="white"/>
<path id="Vector_12" d="M22.0003 33.8393H3.98541V35.3405H22.0003V33.8393Z" fill="white"/>
</g>
</svg>
