<svg width="129" height="117" viewBox="0 0 129 117" fill="none" xmlns="http://www.w3.org/2000/svg">
<path d="M108.009 23.5714C106.05 23.5714 104.463 25.1598 104.458 27.1186C104.448 31.6363 104.416 35.528 104.364 38.7938C104.332 40.787 105.934 42.4286 107.927 42.4286H110.046C111.761 42.4286 113.216 41.1691 113.462 39.4714C113.708 37.7738 115.174 36.4767 116.865 36.7673C118.065 36.9736 119.25 37.3061 120.42 37.7648C121.651 38.2475 122.377 39.4865 122.377 40.8088V52.3405C122.377 54.1953 120.947 55.7368 119.098 55.877L118.788 55.9005C117.51 55.9972 116.254 55.4107 115.644 54.2838C115.51 54.0359 115.385 53.7924 115.271 53.5533C114.51 51.9684 113.017 50.6571 111.259 50.6571H107.714C105.77 50.6571 104.188 52.2221 104.168 54.1661L104.068 63.5631C104.048 65.3846 105.412 66.9246 107.223 67.1258L109.364 67.3637C111.161 67.5633 112.55 69.1004 112.118 70.8551C111.946 71.5524 111.719 72.2664 111.437 72.9971C110.954 74.2505 109.699 75 108.356 75H89.5884C88.1811 75 86.9811 73.9804 86.7539 72.5916C86.5341 71.2485 87.2866 69.9322 88.5622 69.4578C89.3919 69.1492 90.1309 68.8821 90.779 68.6564C92.3842 68.0974 93.5555 66.573 93.5317 64.8734C93.4895 61.8539 93.4473 58.0866 93.4051 53.5714C93.2026 41.4221 93.0226 31.8962 92.8649 24.9938C92.8302 23.4757 91.8307 22.1519 90.3816 21.698L88.1525 20.9997C86.7293 20.5539 85.8323 19.1496 86.0263 17.6708C86.2267 16.1427 87.529 15 89.0702 15L125.288 15C127.095 15 128.613 16.3602 128.676 18.1663C128.705 19.0095 128.719 19.9255 128.719 20.9143C128.719 22.8565 128.425 25.4074 127.836 28.567C127.601 29.8253 126.676 30.8542 125.406 31.0102C124.375 31.1367 123.137 31.2 121.691 31.2L119.805 31.1143C119.553 31.1143 119.332 30.9439 119.268 30.6996L118.098 26.2212C117.69 24.6603 116.28 23.5714 114.666 23.5714H108.009Z" fill="#F8F8F8"/>
<path d="M71.6909 0C72.2432 0 72.6909 0.447715 72.6909 1V89C72.6909 89.5523 72.2432 90 71.6909 90C71.1386 90 70.6909 89.5523 70.6909 89V45V1C70.6909 0.447715 71.1386 0 71.6909 0Z" fill="#F8F8F8"/>
<path d="M61.365 103.029C61.1659 103.029 61.0664 103.086 61.0664 103.2V103.243C61.0664 103.3 61.0948 103.342 61.1517 103.371L64.053 108.875L67.2957 103.456C67.381 103.371 67.381 103.285 67.2957 103.2C67.2957 103.086 67.2104 103.029 67.0397 103.029L65.8877 102.901V101.963H70.069V102.901L69.045 103.072L64.7784 110.069V114.72C64.7784 114.891 64.9348 114.976 65.2477 114.976L66.5704 115.104V116H60.981V115.104L62.1757 114.976C62.4886 114.976 62.645 114.891 62.645 114.72V110.325L58.677 103.2L57.4397 102.901V101.963H62.389V102.901L61.365 103.029Z" fill="#F8F8F8"/>
<path d="M52.9291 108.021C53.0144 107.936 53.0571 107.879 53.0571 107.851L53.3131 106.357H54.2518V111.093H53.3131L53.0571 109.6C53.0571 109.515 53.0144 109.429 52.9291 109.344C52.9291 109.259 52.8295 109.216 52.6304 109.216H49.6011V114.976H54.8491C54.9344 114.976 54.9913 114.919 55.0198 114.805C55.0482 114.777 55.0767 114.748 55.1051 114.72C55.1904 114.692 55.2331 114.649 55.2331 114.592L55.6171 112.587H56.6838V116H45.8464V115.104L46.9984 114.976H47.1691C47.226 114.976 47.2829 114.919 47.3398 114.805C47.3967 114.663 47.4251 114.564 47.4251 114.507V103.371C47.4251 103.342 47.3967 103.285 47.3398 103.2C47.2829 103.086 47.2118 103.029 47.1264 103.029C47.0695 103.029 47.0269 102.987 46.9984 102.901L45.8464 102.816V101.963H55.9584V105.163H54.7638L54.4224 103.371C54.4224 103.257 54.3655 103.157 54.2518 103.072C54.2518 103.044 54.1807 103.029 54.0384 103.029H49.6011V108.192H52.6304C52.8295 108.192 52.9291 108.135 52.9291 108.021Z" fill="#F8F8F8"/>
<path d="M43.2001 103.029C43.0294 103.029 42.9441 103.143 42.9441 103.371V116H41.3654L33.5574 104.309V114.507C33.5574 114.649 33.5858 114.777 33.6427 114.891C33.7281 114.948 33.8561 114.976 34.0267 114.976L35.1361 115.104V116H30.6987V115.104L31.9361 114.976C32.1067 114.976 32.1921 114.948 32.1921 114.891C32.3058 114.692 32.3627 114.564 32.3627 114.507V103.371C32.3627 103.342 32.3058 103.243 32.1921 103.072C32.1921 102.958 32.1067 102.901 31.9361 102.901L30.6987 102.816V101.963H34.7521V102.56L41.7494 113.013V103.456C41.7494 103.285 41.721 103.172 41.6641 103.115C41.6072 103.058 41.4792 103.029 41.2801 103.029L40.1707 102.901V101.963H44.6081V102.901L43.4134 103.029V102.901C43.3565 102.987 43.2854 103.029 43.2001 103.029Z" fill="#F8F8F8"/>
<path d="M27.2469 109.045C27.2469 107.14 26.8771 105.689 26.1376 104.693C25.9385 104.409 25.7393 104.153 25.5402 103.925C25.3411 103.698 25.0851 103.513 24.7722 103.371C24.3171 103.001 23.7056 102.816 22.9376 102.816C22.1696 102.816 21.5153 103.001 20.9749 103.371C19.6665 103.996 18.8416 105.476 18.5002 107.808C18.4433 108.206 18.4149 108.604 18.4149 109.003C18.4149 110.596 18.7847 112.032 19.5242 113.312C19.8371 113.824 20.3207 114.293 20.9749 114.72C21.5438 115.004 22.0985 115.147 22.6389 115.147C23.4922 115.147 24.2318 115.004 24.8576 114.72C25.5118 114.265 25.9953 113.767 26.3082 113.227C26.9909 112.032 27.3322 110.638 27.3322 109.045H27.2469ZM29.6789 109.045C29.6789 109.956 29.5225 110.908 29.2096 111.904L28.6122 113.141C28.2425 113.852 27.6451 114.521 26.8202 115.147C26.4789 115.403 26.0096 115.673 25.4122 115.957C24.8149 116.242 23.9758 116.384 22.8949 116.384C20.79 116.384 19.1545 115.701 17.9882 114.336C17.6469 114.023 17.3767 113.668 17.1776 113.269C16.9785 112.843 16.7936 112.416 16.6229 111.989C16.31 111.164 16.1536 110.183 16.1536 109.045C16.1536 106.827 16.7651 105.077 17.9882 103.797C18.614 103.143 19.2967 102.631 20.0362 102.261C20.918 101.892 21.8851 101.707 22.9376 101.707C23.99 101.707 24.8149 101.849 25.4122 102.133C26.2656 102.532 27.0762 103.086 27.8442 103.797C28.3847 104.565 28.8398 105.362 29.2096 106.187C29.5225 107.239 29.6789 108.192 29.6789 109.045Z" fill="#F8F8F8"/>
<path d="M13.7576 103.029C13.5585 103.029 13.4589 103.086 13.4589 103.2C13.4305 103.2 13.3878 103.228 13.3309 103.285C13.3025 103.342 13.2883 103.399 13.2883 103.456V114.592C13.2883 114.677 13.3452 114.777 13.4589 114.891C13.4589 114.948 13.5016 114.976 13.5869 114.976H13.7576L14.8669 115.104V116H9.57627V115.104L10.7709 114.976H10.9416C11.0269 114.976 11.0696 114.948 11.0696 114.891C11.1265 114.834 11.1549 114.734 11.1549 114.592V109.216H4.4136V114.891C4.47049 114.948 4.58427 114.976 4.75494 114.976L5.9496 115.104V116H0.658936V115.104L1.81094 114.976C1.9816 114.976 2.06694 114.948 2.06694 114.891C2.18071 114.805 2.2376 114.706 2.2376 114.592V103.456C2.2376 103.399 2.20916 103.342 2.15227 103.285C2.12382 103.228 2.09538 103.2 2.06694 103.2C2.06694 103.086 1.9816 103.029 1.81094 103.029L0.658936 102.901V101.963H5.9496V102.901L4.75494 103.029C4.58427 103.029 4.47049 103.086 4.4136 103.2V108.149H11.1549V103.2C11.0412 103.086 10.9132 103.029 10.7709 103.029L9.57627 102.901V101.963H14.8669V102.901L13.7576 103.029Z" fill="#F8F8F8"/>
<path d="M124.379 103.2L123.995 103.029C123.967 103.029 123.825 102.958 123.569 102.816H122.715C121.549 102.816 120.682 103.314 120.113 104.309C120.056 104.452 120.027 104.594 120.027 104.736V105.76C120.027 105.902 120.056 106.044 120.113 106.187C120.226 106.329 120.326 106.457 120.411 106.571C120.525 106.656 120.639 106.784 120.753 106.955C120.952 107.125 121.236 107.282 121.606 107.424C121.834 107.595 122.189 107.765 122.673 107.936C123.412 108.249 124.052 108.533 124.593 108.789C124.792 108.932 125.005 109.074 125.233 109.216C125.46 109.33 125.659 109.472 125.83 109.643C126.171 109.984 126.399 110.297 126.513 110.581C126.769 111.236 126.897 111.748 126.897 112.117H126.811C126.811 112.629 126.726 113.156 126.555 113.696C125.844 114.692 125.233 115.317 124.721 115.573C123.981 115.972 123.341 116.199 122.801 116.256C122.26 116.341 121.791 116.384 121.393 116.384H120.411C120.184 116.384 119.956 116.356 119.729 116.299C119.53 116.242 119.33 116.185 119.131 116.128C118.932 116.1 118.733 116.057 118.534 116C118.363 115.943 118.193 115.886 118.022 115.829C117.88 115.744 117.709 115.687 117.51 115.659V111.904H118.918L119.089 114.208C119.146 114.265 119.174 114.322 119.174 114.379C119.231 114.464 119.288 114.535 119.345 114.592C119.43 114.62 119.473 114.663 119.473 114.72L119.857 114.891C119.942 114.891 120.027 114.919 120.113 114.976L120.753 115.147C121.236 115.147 121.649 115.147 121.99 115.147C122.331 115.147 122.602 115.09 122.801 114.976C123.483 114.834 123.953 114.578 124.209 114.208C124.294 114.037 124.394 113.895 124.507 113.781C124.593 113.554 124.635 113.212 124.635 112.757C124.635 112.274 124.522 111.89 124.294 111.605C124.209 111.406 124.081 111.25 123.91 111.136C123.739 111.022 123.554 110.908 123.355 110.795C122.929 110.482 122.573 110.283 122.289 110.197C122.004 110.084 121.762 109.97 121.563 109.856C121.364 109.742 121.165 109.657 120.966 109.6C120.767 109.458 120.568 109.344 120.369 109.259C120.283 109.23 120.013 109.088 119.558 108.832C119.131 108.548 118.804 108.292 118.577 108.064C118.065 107.552 117.809 106.798 117.809 105.803C117.809 105.063 117.937 104.494 118.193 104.096C118.42 103.641 118.719 103.214 119.089 102.816C119.43 102.56 119.956 102.276 120.667 101.963C121.236 101.792 121.762 101.707 122.246 101.707H123.185C123.355 101.707 123.54 101.749 123.739 101.835L124.635 101.877C125.119 102.02 125.403 102.119 125.489 102.176C125.887 102.29 126.171 102.347 126.342 102.347V105.589H125.105L124.891 103.669C124.692 103.527 124.593 103.428 124.593 103.371C124.593 103.342 124.564 103.328 124.507 103.328V103.243H124.465C124.408 103.243 124.379 103.228 124.379 103.2Z" fill="#F8F8F8"/>
<path d="M114.448 103.371C114.448 103.257 114.434 103.157 114.406 103.072C114.349 103.072 114.32 103.072 114.32 103.072C114.32 103.044 114.278 103.029 114.192 103.029H111.12V114.592C111.12 114.649 111.149 114.706 111.206 114.763C111.263 114.791 111.291 114.834 111.291 114.891C111.319 114.948 111.433 114.976 111.632 114.976L112.955 115.104V116H107.238V115.104L108.646 114.976C108.816 114.976 108.902 114.948 108.902 114.891C109.044 114.805 109.115 114.706 109.115 114.592V103.029H106.043C105.986 103.029 105.958 103.044 105.958 103.072C105.958 103.072 105.915 103.072 105.83 103.072C105.773 103.157 105.744 103.257 105.744 103.371L105.488 105.291H104.251V101.963H116.112V105.291H114.875L114.448 103.371Z" fill="#F8F8F8"/>
<path d="M101.83 103.2C101.745 103.2 101.702 103.285 101.702 103.456V114.592C101.702 114.677 101.745 114.777 101.83 114.891C101.83 114.948 101.93 114.976 102.129 114.976L103.451 115.104V116H97.8621V115.104L99.1421 114.976H99.3554C99.4123 114.976 99.4407 114.948 99.4407 114.891C99.4976 114.834 99.5261 114.734 99.5261 114.592V103.2C99.4123 103.086 99.2843 103.029 99.1421 103.029L97.8621 102.901V101.963H103.451V102.901L102.129 103.029C101.93 103.029 101.83 103.086 101.83 103.2Z" fill="#F8F8F8"/>
<path d="M87.8892 114.976C88.1736 114.976 88.3159 114.891 88.3159 114.72V103.456C88.3159 103.285 88.2874 103.157 88.2305 103.072C88.1736 103.044 88.0599 103.029 87.8892 103.029L86.6519 102.901V101.963H96.8065V105.291H95.5692L95.1425 103.371C95.1425 103.257 95.1283 103.157 95.0999 103.072C95.043 103.044 94.9434 103.029 94.8012 103.029H90.4919V108.491H93.6065C93.7487 108.491 93.8199 108.42 93.8199 108.277C93.9052 108.192 93.9479 108.107 93.9479 108.021L94.2039 106.528H95.1425V111.264H94.2039L93.9479 109.899C93.9479 109.813 93.9052 109.714 93.8199 109.6C93.8199 109.543 93.7487 109.515 93.6065 109.515H90.4919V114.72C90.4919 114.777 90.5203 114.834 90.5772 114.891C90.5772 114.948 90.6625 114.976 90.8332 114.976L92.1985 115.104V116H86.7372V115.104L87.8892 114.976Z" fill="#F8F8F8"/>
<path d="M38.2046 68.6102C39.8092 68.0642 40.9844 66.5779 40.9557 64.8832L40.7214 51.058C40.6886 49.1229 39.1105 47.5714 37.1752 47.5714H21.7048C19.7645 47.5714 18.184 49.1322 18.1601 51.0724C18.0966 56.2203 18.0571 60.4596 18.0414 63.7903C18.0334 65.4963 19.2992 66.9365 20.9908 67.1571C22.6825 67.3778 23.9812 68.8342 23.6157 70.5006C23.4368 71.3165 23.1855 72.1482 22.862 72.9956C22.3828 74.2506 21.128 75 19.7846 75H3.61595C2.1928 75 0.979244 73.9689 0.749421 72.5644C0.531121 71.2304 1.26034 69.9159 2.5222 69.4311C3.35986 69.1092 4.12692 68.8302 4.82338 68.5941C6.40721 68.0571 7.55758 66.6091 7.52946 64.937C7.43746 59.4665 7.21062 46.1605 6.84895 25.0191C6.82281 23.4913 5.82108 22.1489 4.36297 21.6921L2.15252 20.9997C0.729263 20.5539 -0.167669 19.1496 0.0262704 17.6708C0.226682 16.1427 1.52902 15 3.07024 15L20.5557 15C21.8084 15 23.0025 15.6544 23.3884 16.8462C23.5821 17.4446 23.7437 18.1049 23.8732 18.827C24.1701 20.4827 22.1874 22.0896 20.5236 22.3375C18.9114 22.5778 18.4433 23.8416 18.42 25.4714C18.3616 29.557 18.323 32.9988 18.3042 35.7966C18.291 37.7553 19.8787 39.3429 21.8375 39.3429H36.8898C38.8696 39.3429 40.4661 37.7219 40.436 35.7422L40.2727 25.0211C40.2494 23.4908 39.2472 22.1481 37.7867 21.6906L35.5811 20.9997C34.1578 20.5539 33.2609 19.1496 33.4548 17.6708C33.6553 16.1427 34.9576 15 36.4988 15H53.9842C55.2369 15 56.3733 15.6824 56.6952 16.8931C56.8518 17.4819 56.9943 18.1234 57.1183 18.7419C57.4536 20.4146 56.5581 21.9377 54.8713 22.1925C53.3239 22.4263 51.8795 23.7963 51.8643 25.3612L51.4623 66.7714L54.2886 67.1401C56.0551 67.3705 57.4118 68.8924 57.0155 70.6292C56.8387 71.4039 56.5971 72.1927 56.2905 72.9956C55.8114 74.2506 54.5565 75 53.2132 75H37.0445C35.6214 75 34.4078 73.9689 34.178 72.5644C33.9597 71.2304 34.6889 69.9159 35.9508 69.4311C36.7695 69.1165 37.5207 68.8429 38.2046 68.6102Z" fill="#F8F8F8"/>
</svg>
